<mxfile host="app.diagrams.net" agent="Mozilla/5.0 (Windows NT 10.0; Win64; x64) AppleWebKit/537.36 (KHTML, like Gecko) Chrome/141.0.0.0 Safari/537.36" version="28.2.7">
  <diagram name="Page-1" id="yHaIOA6m1wzjR5EX6M-j">
    <mxGraphModel dx="872" dy="473" grid="1" gridSize="10" guides="1" tooltips="1" connect="1" arrows="1" fold="1" page="1" pageScale="1" pageWidth="827" pageHeight="1169" math="0" shadow="0">
      <root>
        <mxCell id="0" />
        <mxCell id="1" parent="0" />
        <mxCell id="7QIXPc_UWZDj6GZgOjWh-5" style="edgeStyle=orthogonalEdgeStyle;rounded=0;orthogonalLoop=1;jettySize=auto;html=1;exitX=0.5;exitY=1;exitDx=0;exitDy=0;entryX=0.5;entryY=0;entryDx=0;entryDy=0;" edge="1" parent="1" source="7QIXPc_UWZDj6GZgOjWh-1" target="7QIXPc_UWZDj6GZgOjWh-2">
          <mxGeometry relative="1" as="geometry" />
        </mxCell>
        <mxCell id="7QIXPc_UWZDj6GZgOjWh-6" style="edgeStyle=orthogonalEdgeStyle;rounded=0;orthogonalLoop=1;jettySize=auto;html=1;exitX=0.25;exitY=1;exitDx=0;exitDy=0;entryX=0.25;entryY=0;entryDx=0;entryDy=0;" edge="1" parent="1" source="7QIXPc_UWZDj6GZgOjWh-1" target="7QIXPc_UWZDj6GZgOjWh-2">
          <mxGeometry relative="1" as="geometry" />
        </mxCell>
        <mxCell id="7QIXPc_UWZDj6GZgOjWh-7" style="edgeStyle=orthogonalEdgeStyle;rounded=0;orthogonalLoop=1;jettySize=auto;html=1;exitX=0.75;exitY=1;exitDx=0;exitDy=0;entryX=0.75;entryY=0;entryDx=0;entryDy=0;" edge="1" parent="1" source="7QIXPc_UWZDj6GZgOjWh-1" target="7QIXPc_UWZDj6GZgOjWh-2">
          <mxGeometry relative="1" as="geometry" />
        </mxCell>
        <mxCell id="7QIXPc_UWZDj6GZgOjWh-1" value="&lt;font face=&quot;Times New Roman&quot;&gt;Distance Computation Unit (di)&lt;/font&gt;" style="rounded=0;whiteSpace=wrap;html=1;fillColor=#ffe6cc;strokeColor=#d79b00;" vertex="1" parent="1">
          <mxGeometry x="354" y="60" width="156" height="50" as="geometry" />
        </mxCell>
        <mxCell id="7QIXPc_UWZDj6GZgOjWh-8" style="edgeStyle=orthogonalEdgeStyle;rounded=0;orthogonalLoop=1;jettySize=auto;html=1;exitX=0.5;exitY=1;exitDx=0;exitDy=0;entryX=0.5;entryY=0;entryDx=0;entryDy=0;" edge="1" parent="1" source="7QIXPc_UWZDj6GZgOjWh-2" target="7QIXPc_UWZDj6GZgOjWh-4">
          <mxGeometry relative="1" as="geometry" />
        </mxCell>
        <mxCell id="7QIXPc_UWZDj6GZgOjWh-12" style="edgeStyle=orthogonalEdgeStyle;rounded=0;orthogonalLoop=1;jettySize=auto;html=1;exitX=0.75;exitY=1;exitDx=0;exitDy=0;entryX=0.75;entryY=0;entryDx=0;entryDy=0;" edge="1" parent="1" source="7QIXPc_UWZDj6GZgOjWh-2" target="7QIXPc_UWZDj6GZgOjWh-4">
          <mxGeometry relative="1" as="geometry" />
        </mxCell>
        <mxCell id="7QIXPc_UWZDj6GZgOjWh-13" style="edgeStyle=orthogonalEdgeStyle;rounded=0;orthogonalLoop=1;jettySize=auto;html=1;exitX=0.25;exitY=1;exitDx=0;exitDy=0;entryX=0.25;entryY=0;entryDx=0;entryDy=0;" edge="1" parent="1" source="7QIXPc_UWZDj6GZgOjWh-2" target="7QIXPc_UWZDj6GZgOjWh-4">
          <mxGeometry relative="1" as="geometry" />
        </mxCell>
        <mxCell id="7QIXPc_UWZDj6GZgOjWh-2" value="&lt;font face=&quot;Times New Roman&quot;&gt;Utility Estimation Unit&amp;nbsp;(Wi)&lt;/font&gt;" style="rounded=0;whiteSpace=wrap;html=1;fillColor=#e1d5e7;strokeColor=#9673a6;" vertex="1" parent="1">
          <mxGeometry x="354" y="130" width="156" height="50" as="geometry" />
        </mxCell>
        <mxCell id="7QIXPc_UWZDj6GZgOjWh-4" value="&lt;font face=&quot;Times New Roman&quot;&gt;Sorting and Selection Module&lt;/font&gt;" style="rounded=0;whiteSpace=wrap;html=1;fillColor=#f8cecc;strokeColor=#b85450;" vertex="1" parent="1">
          <mxGeometry x="354" y="200" width="156" height="50" as="geometry" />
        </mxCell>
        <mxCell id="7QIXPc_UWZDj6GZgOjWh-22" value="" style="endArrow=none;html=1;rounded=0;entryX=0;entryY=0.5;entryDx=0;entryDy=0;exitX=0;exitY=0.5;exitDx=0;exitDy=0;" edge="1" parent="1" source="7QIXPc_UWZDj6GZgOjWh-4" target="7QIXPc_UWZDj6GZgOjWh-1">
          <mxGeometry width="50" height="50" relative="1" as="geometry">
            <mxPoint x="390" y="270" as="sourcePoint" />
            <mxPoint x="440" y="220" as="targetPoint" />
            <Array as="points">
              <mxPoint x="330" y="225" />
              <mxPoint x="330" y="160" />
              <mxPoint x="330" y="85" />
            </Array>
          </mxGeometry>
        </mxCell>
        <mxCell id="7QIXPc_UWZDj6GZgOjWh-28" style="edgeStyle=orthogonalEdgeStyle;rounded=0;orthogonalLoop=1;jettySize=auto;html=1;exitX=1;exitY=0.5;exitDx=0;exitDy=0;" edge="1" parent="1" source="7QIXPc_UWZDj6GZgOjWh-24">
          <mxGeometry relative="1" as="geometry">
            <mxPoint x="330" y="115" as="targetPoint" />
          </mxGeometry>
        </mxCell>
        <mxCell id="7QIXPc_UWZDj6GZgOjWh-24" value="&lt;font face=&quot;Times New Roman&quot;&gt;Node Positions&lt;/font&gt;" style="rounded=0;whiteSpace=wrap;html=1;fillColor=#d5e8d4;strokeColor=#82b366;" vertex="1" parent="1">
          <mxGeometry x="180" y="100" width="120" height="30" as="geometry" />
        </mxCell>
        <mxCell id="7QIXPc_UWZDj6GZgOjWh-29" style="edgeStyle=orthogonalEdgeStyle;rounded=0;orthogonalLoop=1;jettySize=auto;html=1;exitX=1;exitY=0.5;exitDx=0;exitDy=0;" edge="1" parent="1" source="7QIXPc_UWZDj6GZgOjWh-26">
          <mxGeometry relative="1" as="geometry">
            <mxPoint x="330" y="155" as="targetPoint" />
          </mxGeometry>
        </mxCell>
        <mxCell id="7QIXPc_UWZDj6GZgOjWh-26" value="&lt;font face=&quot;Times New Roman&quot;&gt;Node residual energy&lt;/font&gt;" style="rounded=0;whiteSpace=wrap;html=1;fillColor=#d5e8d4;strokeColor=#82b366;" vertex="1" parent="1">
          <mxGeometry x="180" y="140" width="120" height="30" as="geometry" />
        </mxCell>
        <mxCell id="7QIXPc_UWZDj6GZgOjWh-30" style="edgeStyle=orthogonalEdgeStyle;rounded=0;orthogonalLoop=1;jettySize=auto;html=1;exitX=1;exitY=0.5;exitDx=0;exitDy=0;" edge="1" parent="1" source="7QIXPc_UWZDj6GZgOjWh-27">
          <mxGeometry relative="1" as="geometry">
            <mxPoint x="330" y="195" as="targetPoint" />
          </mxGeometry>
        </mxCell>
        <mxCell id="7QIXPc_UWZDj6GZgOjWh-27" value="&lt;font face=&quot;Times New Roman&quot;&gt;CH Candidate list&lt;/font&gt;" style="rounded=0;whiteSpace=wrap;html=1;fillColor=#d5e8d4;strokeColor=#82b366;" vertex="1" parent="1">
          <mxGeometry x="180" y="180" width="120" height="30" as="geometry" />
        </mxCell>
        <mxCell id="7QIXPc_UWZDj6GZgOjWh-31" value="" style="endArrow=none;html=1;rounded=0;entryX=1;entryY=0.5;entryDx=0;entryDy=0;exitX=1;exitY=0.5;exitDx=0;exitDy=0;" edge="1" parent="1" source="7QIXPc_UWZDj6GZgOjWh-4" target="7QIXPc_UWZDj6GZgOjWh-1">
          <mxGeometry width="50" height="50" relative="1" as="geometry">
            <mxPoint x="554" y="220" as="sourcePoint" />
            <mxPoint x="554" y="80" as="targetPoint" />
            <Array as="points">
              <mxPoint x="530" y="225" />
              <mxPoint x="530" y="155" />
              <mxPoint x="530" y="85" />
            </Array>
          </mxGeometry>
        </mxCell>
        <mxCell id="7QIXPc_UWZDj6GZgOjWh-32" value="&lt;font face=&quot;Times New Roman&quot;&gt;Outputs final CHs&lt;/font&gt;" style="rounded=0;whiteSpace=wrap;html=1;fillColor=#d5e8d4;strokeColor=#82b366;" vertex="1" parent="1">
          <mxGeometry x="560" y="140" width="100" height="30" as="geometry" />
        </mxCell>
        <mxCell id="7QIXPc_UWZDj6GZgOjWh-33" value="" style="endArrow=classic;html=1;rounded=0;entryX=0;entryY=0.5;entryDx=0;entryDy=0;" edge="1" parent="1" target="7QIXPc_UWZDj6GZgOjWh-32">
          <mxGeometry width="50" height="50" relative="1" as="geometry">
            <mxPoint x="530" y="155" as="sourcePoint" />
            <mxPoint x="440" y="220" as="targetPoint" />
          </mxGeometry>
        </mxCell>
      </root>
    </mxGraphModel>
  </diagram>
</mxfile>
